<svg width="192" height="192" viewBox="0 0 192 192" fill="none" xmlns="http://www.w3.org/2000/svg">
<g id="Icon">
<g id="Border" opacity="0.06">
<rect id="Shape" width="192" height="192" rx="16" fill="#1565D8"/>
</g>
<g id="Workflow">
<path id="path" fill-rule="evenodd" clip-rule="evenodd" d="M96.9005 66.2381H73.3798V59.0952H96.9005L93.4735 55.6682C92.0788 54.2735 92.0788 52.0122 93.4735 50.6175C94.8682 49.2227 97.1295 49.2227 98.5243 50.6175L108.048 60.1413C109.443 61.536 109.443 63.7973 108.048 65.192L98.5243 74.7158C97.1295 76.1106 94.8682 76.1106 93.4735 74.7158C92.0788 73.3211 92.0788 71.0598 93.4735 69.6651L96.9005 66.2381ZM136.331 93.4746L132.904 96.9016V73.3809H125.761V96.9016L122.334 93.4746C120.939 92.0799 118.678 92.0799 117.283 93.4746C115.888 94.8693 115.888 97.1306 117.283 98.5254L126.807 108.049C127.504 108.747 128.418 109.095 129.332 109.095C130.246 109.095 131.16 108.747 131.858 108.049L141.381 98.5254C142.776 97.1306 142.776 94.8693 141.381 93.4746C139.987 92.0799 137.725 92.0799 136.331 93.4746ZM98.5243 136.332L95.0973 132.905H118.618V125.762H95.0973L98.5243 122.335C99.919 120.94 99.919 118.679 98.5243 117.284C97.1295 115.889 94.8682 115.889 93.4735 117.284L83.9497 126.808C82.555 128.203 82.555 130.464 83.9497 131.859L93.4735 141.383C94.8682 142.777 97.1295 142.777 98.5243 141.383C99.919 139.988 99.919 137.726 98.5243 136.332ZM55.6671 98.5254L59.0941 95.0984V118.619H66.237V95.0984L69.664 98.5254C71.0587 99.9201 73.32 99.9201 74.7147 98.5254C76.1095 97.1306 76.1095 94.8693 74.7147 93.4746L65.1909 83.9508C63.7962 82.5561 61.5349 82.5561 60.1402 83.9508L50.6164 93.4746C49.2216 94.8693 49.2216 97.1306 50.6164 98.5254C52.0111 99.9201 54.2724 99.9201 55.6671 98.5254Z" fill="#B4CCEF"/>
<path id="path_2" fill-rule="evenodd" clip-rule="evenodd" d="M79.3353 72.1906V53.143C79.3353 49.1981 76.1373 46.0001 72.1924 46.0001H53.1448C49.1999 46.0001 46.002 49.1981 46.002 53.143V72.1906C46.002 76.1355 49.1999 79.3335 53.1448 79.3335H72.1924C76.1373 79.3335 79.3353 76.1355 79.3353 72.1906ZM72.1924 112.667H53.1448C49.1999 112.667 46.002 115.865 46.002 119.81V138.857C46.002 142.802 49.1999 146 53.1448 146H72.1924C76.1373 146 79.3353 142.802 79.3353 138.857V119.81C79.3353 115.865 76.1373 112.667 72.1924 112.667ZM138.859 79.3335H119.811C115.867 79.3335 112.669 76.1355 112.669 72.1906V53.143C112.669 49.1981 115.867 46.0001 119.811 46.0001H138.859C142.804 46.0001 146.002 49.1981 146.002 53.143V72.1906C146.002 76.1355 142.804 79.3335 138.859 79.3335ZM112.669 119.81V138.857C112.669 142.802 115.867 146 119.811 146H138.859C142.804 146 146.002 142.802 146.002 138.857V119.81C146.002 115.865 142.804 112.667 138.859 112.667H119.811C115.867 112.667 112.669 115.865 112.669 119.81Z" fill="#1565D8"/>
</g>
</g>
</svg>
