<svg width="192" height="192" viewBox="0 0 192 192" fill="none" xmlns="http://www.w3.org/2000/svg">
<g id="Icon">
<g id="Border" opacity="0.06">
<rect id="Shape" width="192" height="192" rx="16" fill="#1565D8"/>
</g>
<g id="Icon_Integrity">
<path id="Path" d="M112.669 117.429V138.857C112.669 142.802 109.471 146 105.526 146H53.1448C49.1999 146 46.002 142.802 46.002 138.857V86.4762C46.002 82.5313 49.1999 79.3334 53.1448 79.3334H74.5734V105.524C74.5734 112.099 79.9033 117.429 86.4781 117.429H112.669Z" fill="#B4CCEF"/>
<path id="Path_2" fill-rule="evenodd" clip-rule="evenodd" d="M86.4788 46.0001H138.86C142.805 46.0001 146.003 49.1981 146.003 53.143V105.524C146.003 109.469 142.805 112.667 138.86 112.667H86.4788C82.5339 112.667 79.3359 109.469 79.3359 105.524V53.143C79.3359 49.1981 82.5339 46.0001 86.4788 46.0001Z" fill="#1565D8"/>
</g>
</g>
</svg>
