<svg width="699" height="815" viewBox="0 0 699 815" fill="none" xmlns="http://www.w3.org/2000/svg">
<path fill-rule="evenodd" clip-rule="evenodd" d="M273.1 260.347C423.555 109.875 667.539 109.922 818.052 260.452C821.034 263.434 823.957 266.453 826.821 269.507L282.259 814.128C279.205 811.264 276.187 808.34 273.205 805.358C122.691 654.828 122.644 410.819 273.1 260.347Z" fill="#1565D8"/>
<mask id="mask0_8_3156" style="mask-type:alpha" maskUnits="userSpaceOnUse" x="160" y="147" width="667" height="668">
<path fill-rule="evenodd" clip-rule="evenodd" d="M273.1 260.347C423.555 109.875 667.539 109.922 818.052 260.452C821.034 263.434 823.957 266.453 826.821 269.507L282.259 814.128C279.205 811.264 276.187 808.34 273.205 805.358C122.691 654.828 122.644 410.819 273.1 260.347Z" fill="white"/>
</mask>
<g mask="url(#mask0_8_3156)">
<path opacity="0.1" fill-rule="evenodd" clip-rule="evenodd" d="M647.358 253.277C649.37 253.277 651 251.648 651 249.639C651 247.629 649.37 246 647.358 246C645.347 246 643.716 247.629 643.716 249.639C643.716 251.648 645.347 253.277 647.358 253.277ZM651 268.742C651 270.752 649.37 272.381 647.358 272.381C645.347 272.381 643.716 270.752 643.716 268.742C643.716 266.732 645.347 265.103 647.358 265.103C649.37 265.103 651 266.732 651 268.742ZM647.358 291.484C649.37 291.484 651 289.855 651 287.845C651 285.836 649.37 284.206 647.358 284.206C645.347 284.206 643.716 285.836 643.716 287.845C643.716 289.855 645.347 291.484 647.358 291.484ZM651 306.948C651 308.958 649.37 310.587 647.358 310.587C645.347 310.587 643.716 308.958 643.716 306.948C643.716 304.939 645.347 303.31 647.358 303.31C649.37 303.31 651 304.939 651 306.948ZM647.358 329.69C649.37 329.69 651 328.061 651 326.052C651 324.042 649.37 322.413 647.358 322.413C645.347 322.413 643.716 324.042 643.716 326.052C643.716 328.061 645.347 329.69 647.358 329.69ZM651 345.155C651 347.164 649.37 348.794 647.358 348.794C645.347 348.794 643.716 347.164 643.716 345.155C643.716 343.145 645.347 341.516 647.358 341.516C649.37 341.516 651 343.145 651 345.155ZM647.358 367.897C649.37 367.897 651 366.268 651 364.258C651 362.248 649.37 360.619 647.358 360.619C645.347 360.619 643.716 362.248 643.716 364.258C643.716 366.268 645.347 367.897 647.358 367.897ZM536.284 383.361C536.284 385.371 534.653 387 532.642 387C530.63 387 529 385.371 529 383.361C529 381.352 530.63 379.723 532.642 379.723C534.653 379.723 536.284 381.352 536.284 383.361ZM551.761 387C553.773 387 555.403 385.371 555.403 383.361C555.403 381.352 553.773 379.723 551.761 379.723C549.75 379.723 548.119 381.352 548.119 383.361C548.119 385.371 549.75 387 551.761 387ZM574.522 383.361C574.522 385.371 572.892 387 570.881 387C568.869 387 567.239 385.371 567.239 383.361C567.239 381.352 568.869 379.723 570.881 379.723C572.892 379.723 574.522 381.352 574.522 383.361ZM590 387C592.011 387 593.642 385.371 593.642 383.361C593.642 381.352 592.011 379.723 590 379.723C587.989 379.723 586.358 381.352 586.358 383.361C586.358 385.371 587.989 387 590 387ZM612.761 383.361C612.761 385.371 611.131 387 609.119 387C607.108 387 605.478 385.371 605.478 383.361C605.478 381.352 607.108 379.723 609.119 379.723C611.131 379.723 612.761 381.352 612.761 383.361ZM628.239 387C630.25 387 631.881 385.371 631.881 383.361C631.881 381.352 630.25 379.723 628.239 379.723C626.228 379.723 624.597 381.352 624.597 383.361C624.597 385.371 626.228 387 628.239 387ZM647.358 387C649.37 387 651 385.371 651 383.361C651 381.352 649.37 379.723 647.358 379.723C645.347 379.723 643.716 381.352 643.716 383.361C643.716 385.371 645.347 387 647.358 387ZM631.881 364.258C631.881 366.268 630.25 367.897 628.239 367.897C626.228 367.897 624.597 366.268 624.597 364.258C624.597 362.248 626.228 360.619 628.239 360.619C630.25 360.619 631.881 362.248 631.881 364.258ZM609.119 367.897C611.131 367.897 612.761 366.268 612.761 364.258C612.761 362.248 611.131 360.619 609.119 360.619C607.108 360.619 605.478 362.248 605.478 364.258C605.478 366.268 607.108 367.897 609.119 367.897ZM593.642 364.258C593.642 366.268 592.011 367.897 590 367.897C587.989 367.897 586.358 366.268 586.358 364.258C586.358 362.248 587.989 360.619 590 360.619C592.011 360.619 593.642 362.248 593.642 364.258ZM570.881 367.897C572.892 367.897 574.522 366.268 574.522 364.258C574.522 362.248 572.892 360.619 570.881 360.619C568.869 360.619 567.239 362.248 567.239 364.258C567.239 366.268 568.869 367.897 570.881 367.897ZM555.403 364.258C555.403 366.268 553.773 367.897 551.761 367.897C549.75 367.897 548.119 366.268 548.119 364.258C548.119 362.248 549.75 360.619 551.761 360.619C553.773 360.619 555.403 362.248 555.403 364.258ZM532.642 367.897C534.653 367.897 536.284 366.268 536.284 364.258C536.284 362.248 534.653 360.619 532.642 360.619C530.63 360.619 529 362.248 529 364.258C529 366.268 530.63 367.897 532.642 367.897ZM628.239 348.794C630.25 348.794 631.881 347.164 631.881 345.155C631.881 343.145 630.25 341.516 628.239 341.516C626.228 341.516 624.597 343.145 624.597 345.155C624.597 347.164 626.228 348.794 628.239 348.794ZM612.761 345.155C612.761 347.164 611.131 348.794 609.119 348.794C607.108 348.794 605.478 347.164 605.478 345.155C605.478 343.145 607.108 341.516 609.119 341.516C611.131 341.516 612.761 343.145 612.761 345.155ZM590 348.794C592.011 348.794 593.642 347.164 593.642 345.155C593.642 343.145 592.011 341.516 590 341.516C587.989 341.516 586.358 343.145 586.358 345.155C586.358 347.164 587.989 348.794 590 348.794ZM574.522 345.155C574.522 347.164 572.892 348.794 570.881 348.794C568.869 348.794 567.239 347.164 567.239 345.155C567.239 343.145 568.869 341.516 570.881 341.516C572.892 341.516 574.522 343.145 574.522 345.155ZM551.761 348.794C553.773 348.794 555.403 347.164 555.403 345.155C555.403 343.145 553.773 341.516 551.761 341.516C549.75 341.516 548.119 343.145 548.119 345.155C548.119 347.164 549.75 348.794 551.761 348.794ZM536.284 345.155C536.284 347.164 534.653 348.794 532.642 348.794C530.63 348.794 529 347.164 529 345.155C529 343.145 530.63 341.516 532.642 341.516C534.653 341.516 536.284 343.145 536.284 345.155ZM631.881 326.052C631.881 328.061 630.25 329.69 628.239 329.69C626.228 329.69 624.597 328.061 624.597 326.052C624.597 324.042 626.228 322.413 628.239 322.413C630.25 322.413 631.881 324.042 631.881 326.052ZM609.119 329.69C611.131 329.69 612.761 328.061 612.761 326.052C612.761 324.042 611.131 322.413 609.119 322.413C607.108 322.413 605.478 324.042 605.478 326.052C605.478 328.061 607.108 329.69 609.119 329.69ZM593.642 326.052C593.642 328.061 592.011 329.69 590 329.69C587.989 329.69 586.358 328.061 586.358 326.052C586.358 324.042 587.989 322.413 590 322.413C592.011 322.413 593.642 324.042 593.642 326.052ZM570.881 329.69C572.892 329.69 574.522 328.061 574.522 326.052C574.522 324.042 572.892 322.413 570.881 322.413C568.869 322.413 567.239 324.042 567.239 326.052C567.239 328.061 568.869 329.69 570.881 329.69ZM555.403 326.052C555.403 328.061 553.773 329.69 551.761 329.69C549.75 329.69 548.119 328.061 548.119 326.052C548.119 324.042 549.75 322.413 551.761 322.413C553.773 322.413 555.403 324.042 555.403 326.052ZM532.642 329.69C534.653 329.69 536.284 328.061 536.284 326.052C536.284 324.042 534.653 322.413 532.642 322.413C530.63 322.413 529 324.042 529 326.052C529 328.061 530.63 329.69 532.642 329.69ZM628.239 310.587C630.25 310.587 631.881 308.958 631.881 306.948C631.881 304.939 630.25 303.31 628.239 303.31C626.228 303.31 624.597 304.939 624.597 306.948C624.597 308.958 626.228 310.587 628.239 310.587ZM612.761 306.948C612.761 308.958 611.131 310.587 609.119 310.587C607.108 310.587 605.478 308.958 605.478 306.948C605.478 304.939 607.108 303.31 609.119 303.31C611.131 303.31 612.761 304.939 612.761 306.948ZM590 310.587C592.011 310.587 593.642 308.958 593.642 306.948C593.642 304.939 592.011 303.31 590 303.31C587.989 303.31 586.358 304.939 586.358 306.948C586.358 308.958 587.989 310.587 590 310.587ZM574.522 306.948C574.522 308.958 572.892 310.587 570.881 310.587C568.869 310.587 567.239 308.958 567.239 306.948C567.239 304.939 568.869 303.31 570.881 303.31C572.892 303.31 574.522 304.939 574.522 306.948ZM551.761 310.587C553.773 310.587 555.403 308.958 555.403 306.948C555.403 304.939 553.773 303.31 551.761 303.31C549.75 303.31 548.119 304.939 548.119 306.948C548.119 308.958 549.75 310.587 551.761 310.587ZM536.284 306.948C536.284 308.958 534.653 310.587 532.642 310.587C530.63 310.587 529 308.958 529 306.948C529 304.939 530.63 303.31 532.642 303.31C534.653 303.31 536.284 304.939 536.284 306.948ZM631.881 287.845C631.881 289.855 630.25 291.484 628.239 291.484C626.228 291.484 624.597 289.855 624.597 287.845C624.597 285.836 626.228 284.206 628.239 284.206C630.25 284.206 631.881 285.836 631.881 287.845ZM609.119 291.484C611.131 291.484 612.761 289.855 612.761 287.845C612.761 285.836 611.131 284.206 609.119 284.206C607.108 284.206 605.478 285.836 605.478 287.845C605.478 289.855 607.108 291.484 609.119 291.484ZM593.642 287.845C593.642 289.855 592.011 291.484 590 291.484C587.989 291.484 586.358 289.855 586.358 287.845C586.358 285.836 587.989 284.206 590 284.206C592.011 284.206 593.642 285.836 593.642 287.845ZM570.881 291.484C572.892 291.484 574.522 289.855 574.522 287.845C574.522 285.836 572.892 284.206 570.881 284.206C568.869 284.206 567.239 285.836 567.239 287.845C567.239 289.855 568.869 291.484 570.881 291.484ZM555.403 287.845C555.403 289.855 553.773 291.484 551.761 291.484C549.75 291.484 548.119 289.855 548.119 287.845C548.119 285.836 549.75 284.206 551.761 284.206C553.773 284.206 555.403 285.836 555.403 287.845ZM532.642 291.484C534.653 291.484 536.284 289.855 536.284 287.845C536.284 285.836 534.653 284.206 532.642 284.206C530.63 284.206 529 285.836 529 287.845C529 289.855 530.63 291.484 532.642 291.484ZM628.239 272.381C630.25 272.381 631.881 270.752 631.881 268.742C631.881 266.732 630.25 265.103 628.239 265.103C626.228 265.103 624.597 266.732 624.597 268.742C624.597 270.752 626.228 272.381 628.239 272.381ZM612.761 268.742C612.761 270.752 611.131 272.381 609.119 272.381C607.108 272.381 605.478 270.752 605.478 268.742C605.478 266.732 607.108 265.103 609.119 265.103C611.131 265.103 612.761 266.732 612.761 268.742ZM590 272.381C592.011 272.381 593.642 270.752 593.642 268.742C593.642 266.732 592.011 265.103 590 265.103C587.989 265.103 586.358 266.732 586.358 268.742C586.358 270.752 587.989 272.381 590 272.381ZM574.522 268.742C574.522 270.752 572.892 272.381 570.881 272.381C568.869 272.381 567.239 270.752 567.239 268.742C567.239 266.732 568.869 265.103 570.881 265.103C572.892 265.103 574.522 266.732 574.522 268.742ZM551.761 272.381C553.773 272.381 555.403 270.752 555.403 268.742C555.403 266.732 553.773 265.103 551.761 265.103C549.75 265.103 548.119 266.732 548.119 268.742C548.119 270.752 549.75 272.381 551.761 272.381ZM536.284 268.742C536.284 270.752 534.653 272.381 532.642 272.381C530.63 272.381 529 270.752 529 268.742C529 266.732 530.63 265.103 532.642 265.103C534.653 265.103 536.284 266.732 536.284 268.742ZM631.881 249.639C631.881 251.648 630.25 253.277 628.239 253.277C626.228 253.277 624.597 251.648 624.597 249.639C624.597 247.629 626.228 246 628.239 246C630.25 246 631.881 247.629 631.881 249.639ZM609.119 253.277C611.131 253.277 612.761 251.648 612.761 249.639C612.761 247.629 611.131 246 609.119 246C607.108 246 605.478 247.629 605.478 249.639C605.478 251.648 607.108 253.277 609.119 253.277ZM593.642 249.639C593.642 251.648 592.011 253.277 590 253.277C587.989 253.277 586.358 251.648 586.358 249.639C586.358 247.629 587.989 246 590 246C592.011 246 593.642 247.629 593.642 249.639ZM570.881 253.277C572.892 253.277 574.522 251.648 574.522 249.639C574.522 247.629 572.892 246 570.881 246C568.869 246 567.239 247.629 567.239 249.639C567.239 251.648 568.869 253.277 570.881 253.277ZM555.403 249.639C555.403 251.648 553.773 253.277 551.761 253.277C549.75 253.277 548.119 251.648 548.119 249.639C548.119 247.629 549.75 246 551.761 246C553.773 246 555.403 247.629 555.403 249.639ZM532.642 253.277C534.653 253.277 536.284 251.648 536.284 249.639C536.284 247.629 534.653 246 532.642 246C530.63 246 529 247.629 529 249.639C529 251.648 530.63 253.277 532.642 253.277Z" fill="white"/>
<path opacity="0.101283" fill-rule="evenodd" clip-rule="evenodd" d="M674.5 592C874.703 592 1037 429.703 1037 229.5C1037 29.2968 874.703 -133 674.5 -133C474.297 -133 312 29.2968 312 229.5C312 429.703 474.297 592 674.5 592ZM674.5 469.952C541.702 469.952 434.048 362.298 434.048 229.5C434.048 96.7019 541.702 -10.9522 674.5 -10.9522C807.298 -10.9522 914.952 96.7019 914.952 229.5C914.952 362.298 807.298 469.952 674.5 469.952Z" fill="url(#paint0_linear_8_3156)"/>
</g>
<defs>
<linearGradient id="paint0_linear_8_3156" x1="349.38" y1="403.4" x2="778.123" y2="594.99" gradientUnits="userSpaceOnUse">
<stop stop-color="white"/>
<stop offset="1" stop-color="white" stop-opacity="0.01"/>
</linearGradient>
</defs>
</svg>
