<svg width="254" height="252" viewBox="0 0 254 252" fill="none" xmlns="http://www.w3.org/2000/svg">
<g id="Shape-2">
<path id="Polygon" opacity="0.093657" fill-rule="evenodd" clip-rule="evenodd" d="M122.179 18.536C129.185 14.4915 137.815 14.4915 144.821 18.536L226.102 65.464C233.108 69.5085 237.423 76.983 237.423 85.0721V178.928C237.423 187.017 233.108 194.492 226.102 198.536L144.821 245.464C137.815 249.508 129.185 249.508 122.179 245.464L40.8977 198.536C33.8924 194.492 29.577 187.017 29.577 178.928V85.0721C29.577 76.9831 33.8924 69.5085 40.8977 65.464L122.179 18.536Z" fill="#1565D8"/>
<g id="Shape" opacity="0.2">
<mask id="mask0_8_3821" style="mask-type:alpha" maskUnits="userSpaceOnUse" x="16" y="3" width="208" height="234">
<path id="Mask" fill-rule="evenodd" clip-rule="evenodd" d="M108.634 6.53604C115.64 2.49153 124.27 2.49152 131.276 6.53604L212.518 53.4415C219.524 57.486 223.839 64.9606 223.839 73.0496V166.86C223.839 174.949 219.524 182.424 212.518 186.469L131.276 233.374C124.27 237.418 115.64 237.419 108.634 233.374L27.3917 186.469C20.3864 182.424 16.0709 174.949 16.0709 166.86V73.0496C16.0709 64.9606 20.3864 57.486 27.3917 53.4415L108.634 6.53604Z" fill="white"/>
</mask>
<g mask="url(#mask0_8_3821)">
<path id="Shape_2" fill-rule="evenodd" clip-rule="evenodd" d="M159.381 -79.0364L386.419 407.848L388.421 406.914L161.383 -79.97L159.381 -79.0364ZM375.373 407.848L148.335 -79.0364L150.337 -79.97L377.375 406.914L375.373 407.848ZM137.29 -79.0364L364.328 407.848L366.33 406.914L139.292 -79.97L137.29 -79.0364ZM353.282 407.848L126.244 -79.0364L128.246 -79.97L355.284 406.914L353.282 407.848ZM115.199 -79.0364L342.237 407.848L344.239 406.914L117.201 -79.97L115.199 -79.0364ZM331.191 407.848L104.153 -79.0364L106.155 -79.97L333.193 406.914L331.191 407.848ZM93.1077 -79.0364L320.146 407.848L322.148 406.914L95.1098 -79.97L93.1077 -79.0364ZM309.1 407.848L82.0621 -79.0364L84.0643 -79.97L311.102 406.914L309.1 407.848ZM71.0166 -79.0364L298.055 407.848L300.057 406.914L73.0187 -79.97L71.0166 -79.0364ZM287.009 407.848L59.9711 -79.0364L61.9732 -79.97L289.011 406.914L287.009 407.848ZM48.9256 -79.0364L275.963 407.848L277.966 406.914L50.9277 -79.97L48.9256 -79.0364ZM264.918 407.848L37.88 -79.0364L39.8821 -79.97L266.92 406.914L264.918 407.848ZM26.8345 -79.0364L253.872 407.848L255.875 406.914L28.8366 -79.97L26.8345 -79.0364ZM242.827 407.848L15.789 -79.0364L17.7911 -79.97L244.829 406.914L242.827 407.848ZM4.74344 -79.0364L231.781 407.848L233.784 406.914L6.74556 -79.97L4.74344 -79.0364ZM220.736 407.848L-6.30208 -79.0364L-4.29996 -79.97L222.738 406.914L220.736 407.848ZM-17.3476 -79.0364L209.69 407.848L211.692 406.914L-15.3455 -79.97L-17.3476 -79.0364ZM198.645 407.848L-28.3932 -79.0364L-26.391 -79.97L200.647 406.914L198.645 407.848ZM-39.4387 -79.0364L187.599 407.848L189.601 406.914L-37.4366 -79.97L-39.4387 -79.0364ZM176.554 407.848L-50.4842 -79.0364L-48.4821 -79.97L178.556 406.914L176.554 407.848ZM-61.5298 -79.0364L165.508 407.848L167.51 406.914L-59.5276 -79.97L-61.5298 -79.0364ZM154.463 407.848L-72.5753 -79.0364L-70.5732 -79.97L156.465 406.914L154.463 407.848ZM-83.6208 -79.0364L143.417 407.848L145.419 406.914L-81.6187 -79.97L-83.6208 -79.0364ZM132.372 407.848L-94.6664 -79.0364L-92.6642 -79.97L134.374 406.914L132.372 407.848ZM-105.712 -79.0364L121.326 407.848L123.328 406.914L-103.71 -79.97L-105.712 -79.0364ZM-116.757 -79.0364L110.281 407.848L112.283 406.914L-114.755 -79.97L-116.757 -79.0364Z" fill="#1565D8"/>
</g>
</g>
</g>
</svg>
