<svg width="189" height="189" viewBox="0 0 189 189" fill="none" xmlns="http://www.w3.org/2000/svg">
<g opacity="0.2">
<mask id="mask0_8_3651" style="mask-type:alpha" maskUnits="userSpaceOnUse" x="12" y="2" width="165" height="185">
<path fill-rule="evenodd" clip-rule="evenodd" d="M86.9174 4.35736C91.5876 1.66102 97.3415 1.66102 102.012 4.35736L168.726 42.8749C173.396 45.5713 176.273 50.5543 176.273 55.947V132.982C176.273 138.375 173.396 143.358 168.726 146.054L102.012 184.572C97.3415 187.268 91.5876 187.268 86.9174 184.572L20.203 146.054C15.5328 143.358 12.6559 138.375 12.6559 132.982V55.947C12.6559 50.5543 15.5328 45.5713 20.203 42.8749L86.9174 4.35736Z" fill="white"/>
</mask>
<g mask="url(#mask0_8_3651)">
<path fill-rule="evenodd" clip-rule="evenodd" d="M125.514 -62.2411L304.306 321.18L305.883 320.445L127.09 -62.9763L125.514 -62.2411ZM295.608 321.18L116.815 -62.2411L118.392 -62.9763L297.184 320.445L295.608 321.18ZM108.117 -62.2411L286.909 321.18L288.486 320.445L109.694 -62.9763L108.117 -62.2411ZM278.211 321.18L99.4187 -62.2411L100.995 -62.9763L279.788 320.445L278.211 321.18ZM90.7204 -62.2411L269.513 321.18L271.089 320.445L92.297 -62.9763L90.7204 -62.2411ZM260.814 321.18L82.022 -62.2411L83.5987 -62.9763L262.391 320.445L260.814 321.18ZM73.3236 -62.2411L252.116 321.18L253.693 320.445L74.9003 -62.9763L73.3236 -62.2411ZM243.418 321.18L64.6253 -62.2411L66.202 -62.9763L244.994 320.445L243.418 321.18ZM55.9269 -62.2411L234.719 321.18L236.296 320.445L57.5036 -62.9763L55.9269 -62.2411ZM226.021 321.18L47.2285 -62.2411L48.8052 -62.9763L227.598 320.445L226.021 321.18ZM38.5302 -62.2411L217.323 321.18L218.899 320.445L40.1069 -62.9763L38.5302 -62.2411ZM208.624 321.18L29.8318 -62.2411L31.4085 -62.9763L210.201 320.445L208.624 321.18ZM21.1335 -62.2411L199.926 321.18L201.503 320.445L22.7102 -62.9763L21.1335 -62.2411ZM191.228 321.18L12.4352 -62.2411L14.0118 -62.9763L192.804 320.445L191.228 321.18ZM3.73679 -62.2411L182.529 321.18L184.106 320.445L5.31348 -62.9763L3.73679 -62.2411ZM173.831 321.18L-4.96158 -62.2411L-3.38489 -62.9763L175.407 320.445L173.831 321.18ZM-13.6599 -62.2411L165.132 321.18L166.709 320.445L-12.0832 -62.9763L-13.6599 -62.2411ZM156.434 321.18L-22.3583 -62.2411L-20.7816 -62.9763L158.011 320.445L156.434 321.18ZM-31.0566 -62.2411L147.736 321.18L149.312 320.445L-29.4799 -62.9763L-31.0566 -62.2411ZM139.037 321.18L-39.755 -62.2411L-38.1783 -62.9763L140.614 320.445L139.037 321.18ZM-48.4533 -62.2411L130.339 321.18L131.916 320.445L-46.8766 -62.9763L-48.4533 -62.2411ZM121.641 321.18L-57.1517 -62.2411L-55.575 -62.9763L123.217 320.445L121.641 321.18ZM-65.85 -62.2411L112.942 321.18L114.519 320.445L-64.2733 -62.9763L-65.85 -62.2411ZM104.244 321.18L-74.5484 -62.2411L-72.9717 -62.9763L105.821 320.445L104.244 321.18ZM-83.2468 -62.2411L95.5456 321.18L97.1223 320.445L-81.6701 -62.9763L-83.2468 -62.2411ZM-91.9451 -62.2411L86.8473 321.18L88.424 320.445L-90.3684 -62.9763L-91.9451 -62.2411Z" fill="#1565D8"/>
</g>
</g>
</svg>
