<svg width="192" height="192" viewBox="0 0 192 192" fill="none" xmlns="http://www.w3.org/2000/svg">
<g id="Icon">
<g id="Border" opacity="0.06">
<rect id="Shape" width="192" height="192" rx="16" fill="#1565D8"/>
</g>
<g id="Icon_Multiple_shape">
<path id="Path" fill-rule="evenodd" clip-rule="evenodd" d="M53.1448 46.0001H110.288C114.233 46.0001 117.431 49.1981 117.431 53.143V110.286C117.431 114.231 114.233 117.429 110.288 117.429H53.1448C49.1999 117.429 46.002 114.231 46.002 110.286V53.143C46.002 49.1981 49.1999 46.0001 53.1448 46.0001ZM136.478 74.5716H138.859C142.804 74.5716 146.002 77.7695 146.002 81.7144V138.857C146.002 142.802 142.804 146 138.859 146H81.7162C77.7713 146 74.5734 142.802 74.5734 138.857V136.476H124.573C131.148 136.476 136.478 131.146 136.478 124.572V74.5716Z" fill="#1565D8"/>
<path id="Path_2" d="M122.192 60.2856H124.573C128.518 60.2856 131.716 63.4836 131.716 67.4285V124.571C131.716 128.516 128.518 131.714 124.573 131.714H67.43C63.4851 131.714 60.2871 128.516 60.2871 124.571V122.19H110.287C116.862 122.19 122.192 116.86 122.192 110.286V60.2856Z" fill="#B4CCEF"/>
</g>
</g>
</svg>
