<svg width="192" height="192" viewBox="0 0 192 192" fill="none" xmlns="http://www.w3.org/2000/svg">
<g id="Icon">
<g id="Border" opacity="0.06">
<rect id="Shape" width="192" height="192" rx="16" fill="#1565D8"/>
</g>
<g id="Icon_Thumbs">
<path id="Path" fill-rule="evenodd" clip-rule="evenodd" d="M72.5449 80.9769C79.008 71.8221 83.0422 61.3171 84.6607 49.4244C84.8148 48.2915 85.6194 47.3495 86.7237 47.0088C97.8538 43.5755 104.182 49.0313 104.077 61.4717C104.057 63.8866 103.945 66.033 103.707 69.3158C103.175 76.6484 103.218 78.6494 104.041 79.9959C104.833 81.2903 107.403 81.7322 113.482 80.5818C115.4 80.2188 117.324 79.8073 119.456 79.3131C120.396 79.095 127.173 77.4468 128.905 77.074C132.209 76.3628 134.58 76.0619 136.665 76.1893C142.313 76.5346 145.31 80.1592 145.828 87.1035C146.74 99.333 143.922 123.897 141.11 132.945C138.238 142.191 133.228 145.681 121.201 145.892C113.469 146.028 101.577 146.028 85.4698 145.892C81.358 145.796 77.6317 145.003 74.3171 143.519C75.2475 141.599 75.7685 139.448 75.7685 137.177V90.1178C75.7685 86.6631 74.563 83.4868 72.5449 80.9769Z" fill="#1565D8"/>
<path id="Path_2" d="M54.9317 81.2941C50 81.2941 46.002 85.2445 46.002 90.1176V137.176C46.002 142.05 50 146 54.9317 146H60.8849C65.8167 146 69.8147 142.05 69.8147 137.176V90.1176C69.8147 85.2445 65.8167 81.2941 60.8849 81.2941H54.9317Z" fill="#B4CCEF"/>
</g>
</g>
</svg>
